<?xml version="1.0" encoding="UTF-8"?>
<svg width="250px" height="157px" viewBox="0 0 250 157" version="1.1" xmlns="http://www.w3.org/2000/svg" xmlns:xlink="http://www.w3.org/1999/xlink">
    <title>Illustration/空状态</title>
    <defs>
        <linearGradient x1="50%" y1="100%" x2="50%" y2="0%" id="linearGradient-1">
            <stop stop-color="#F5F7FA" stop-opacity="0" offset="0%"></stop>
            <stop stop-color="#D9DEE4" offset="100%"></stop>
        </linearGradient>
        <linearGradient x1="50%" y1="50%" x2="50%" y2="0%" id="linearGradient-2">
            <stop stop-color="#F5F7FA" stop-opacity="0" offset="0%"></stop>
            <stop stop-color="#D9DEE4" offset="100%"></stop>
        </linearGradient>
        <linearGradient x1="50%" y1="50%" x2="50%" y2="0%" id="linearGradient-3">
            <stop stop-color="#F5F7FA" stop-opacity="0" offset="0%"></stop>
            <stop stop-color="#D9DEE4" offset="100%"></stop>
        </linearGradient>
        <linearGradient x1="70.998387%" y1="56.749425%" x2="0%" y2="56.749425%" id="linearGradient-4">
            <stop stop-color="#D9DEE4" offset="0%"></stop>
            <stop stop-color="#F5F7FA" offset="100%"></stop>
        </linearGradient>
        <filter x="-13.8%" y="-41.6%" width="127.5%" height="183.1%" filterUnits="objectBoundingBox" id="filter-5">
            <feGaussianBlur stdDeviation="0.654999971" in="SourceGraphic"></feGaussianBlur>
        </filter>
        <linearGradient x1="70.998387%" y1="56.749425%" x2="0%" y2="56.749425%" id="linearGradient-6">
            <stop stop-color="#D9DEE4" offset="0%"></stop>
            <stop stop-color="#F5F7FA" offset="100%"></stop>
        </linearGradient>
        <filter x="-13.8%" y="-41.6%" width="127.5%" height="183.1%" filterUnits="objectBoundingBox" id="filter-7">
            <feGaussianBlur stdDeviation="0.445399985" in="SourceGraphic"></feGaussianBlur>
        </filter>
        <filter x="-13.8%" y="-41.6%" width="127.5%" height="183.1%" filterUnits="objectBoundingBox" id="filter-8">
            <feGaussianBlur stdDeviation="0.445399985" in="SourceGraphic"></feGaussianBlur>
        </filter>
        <linearGradient x1="100%" y1="86.6046083%" x2="0%" y2="0%" id="linearGradient-9">
            <stop stop-color="#D9DEE4" offset="0%"></stop>
            <stop stop-color="#F5F7FA" offset="100%"></stop>
        </linearGradient>
        <linearGradient x1="50%" y1="100%" x2="50%" y2="0%" id="linearGradient-10">
            <stop stop-color="#D9DEE4" offset="0%"></stop>
            <stop stop-color="#F5F7FA" offset="100%"></stop>
        </linearGradient>
        <linearGradient x1="84.2129629%" y1="0%" x2="0.060977795%" y2="100%" id="linearGradient-11">
            <stop stop-color="#CED3D9" offset="0%"></stop>
            <stop stop-color="#F5F7FA" offset="100%"></stop>
        </linearGradient>
        <linearGradient x1="50%" y1="100%" x2="50%" y2="0%" id="linearGradient-12">
            <stop stop-color="#F5F7FA" offset="0%"></stop>
            <stop stop-color="#D9DEE4" offset="100%"></stop>
        </linearGradient>
        <linearGradient x1="50%" y1="100%" x2="50%" y2="0%" id="linearGradient-13">
            <stop stop-color="#D9DEE4" offset="0%"></stop>
            <stop stop-color="#F5F7FA" offset="100%"></stop>
        </linearGradient>
        <linearGradient x1="50%" y1="50%" x2="-2.85857652%" y2="68.0290203%" id="linearGradient-14">
            <stop stop-color="#DADFE5" offset="0%"></stop>
            <stop stop-color="#FFFFFF" stop-opacity="0.443137258" offset="100%"></stop>
        </linearGradient>
        <linearGradient x1="50%" y1="100%" x2="50%" y2="0%" id="linearGradient-15">
            <stop stop-color="#D9DEE4" offset="0%"></stop>
            <stop stop-color="#F5F7FA" stop-opacity="0" offset="100%"></stop>
        </linearGradient>
        <linearGradient x1="50%" y1="65.2392904%" x2="50%" y2="-27.1732481%" id="linearGradient-16">
            <stop stop-color="#D9DEE4" offset="0%"></stop>
            <stop stop-color="#F5F7FA" offset="100%"></stop>
        </linearGradient>
        <linearGradient x1="50%" y1="100%" x2="50%" y2="0%" id="linearGradient-17">
            <stop stop-color="#D9DEE4" offset="0%"></stop>
            <stop stop-color="#F5F7FA" offset="100%"></stop>
        </linearGradient>
        <linearGradient x1="100%" y1="18.5202942%" x2="4.33363417%" y2="90.1902497%" id="linearGradient-18">
            <stop stop-color="#D9DEE4" offset="0%"></stop>
            <stop stop-color="#F5F7FA" offset="100%"></stop>
        </linearGradient>
        <linearGradient x1="100%" y1="60.4489796%" x2="-7.10542736e-13%" y2="46.2357067%" id="linearGradient-19">
            <stop stop-color="#D9DEE4" offset="0%"></stop>
            <stop stop-color="#F5F7FA" offset="100%"></stop>
        </linearGradient>
        <linearGradient x1="0%" y1="23.6234468%" x2="100%" y2="100.445569%" id="linearGradient-20">
            <stop stop-color="#D9DEE4" offset="0%"></stop>
            <stop stop-color="#F5F7FA" offset="100%"></stop>
        </linearGradient>
        <linearGradient x1="50%" y1="0%" x2="50%" y2="100%" id="linearGradient-21">
            <stop stop-color="#5186F0" offset="0%"></stop>
            <stop stop-color="#515FF0" offset="100%"></stop>
        </linearGradient>
        <filter x="-13.6%" y="-150.0%" width="127.3%" height="400.0%" filterUnits="objectBoundingBox" id="filter-22">
            <feGaussianBlur stdDeviation="2" in="SourceGraphic"></feGaussianBlur>
        </filter>
    </defs>
    <g id="Illustration/空状态" stroke="none" stroke-width="1" fill="none" fill-rule="evenodd">
        <g id="编组-8">
            <g id="编组-7">
                <path d="M249.960386,156.004844 C228.181855,108.766797 180.410001,75.9799967 124.980379,75.9799967 C69.5504419,75.9799967 21.7783595,108.76717 4.26325641e-13,156.00565" id="路径" fill="url(#linearGradient-1)"></path>
                <path d="M59.9046433,20.3049991 C63.9814796,20.3049991 67.6250742,22.1525793 70.0374893,25.0529631 C70.5667096,24.9535772 71.1134044,24.9014901 71.6723132,24.9014901 C76.5147834,24.9014901 80.440381,28.8115365 80.440381,33.6348231 C80.440381,38.4581097 76.5147834,42.368156 71.6723132,42.368156 C70.9940543,42.368156 70.3337826,42.2914483 69.6997656,42.1462675 C67.292485,44.8217829 63.7959139,46.504998 59.9046433,46.504998 C56.0521641,46.504998 52.5865544,44.855175 50.1811317,42.2261795 C49.6682825,42.3194202 49.1390806,42.368156 48.5984506,42.368156 C43.7559805,42.368156 39.8303828,38.4581097 39.8303828,33.6348231 C39.8303828,28.8115365 43.7559805,24.9014901 48.5984506,24.9014901 C49.0153109,24.9014901 49.4253768,24.9304655 49.8267288,24.9865045 C52.2402622,22.12428 55.8591498,20.3049991 59.9046433,20.3049991 Z" id="形状结合" fill="url(#linearGradient-2)"></path>
                <path d="M184.618871,0 C189.813667,0 194.456405,2.35577181 197.530287,6.05390611 C198.204705,5.92690862 198.901154,5.86052606 199.61316,5.86052606 C205.783404,5.86052606 210.785375,10.8458352 210.785375,16.9955256 C210.785375,23.145216 205.783404,28.1305251 199.61316,28.1305251 C198.749148,28.1305251 197.908043,28.0327727 197.100372,27.8477592 C194.032473,31.2588694 189.577137,33.4049985 184.618871,33.4049985 C179.710396,33.4049985 175.294801,31.3017564 172.229852,27.9501793 C171.575543,28.0684075 170.901346,28.1305251 170.212593,28.1305251 C164.042349,28.1305251 159.040378,23.145216 159.040378,16.9955256 C159.040378,10.8458352 164.042349,5.86052606 170.212593,5.86052606 C170.744171,5.86052606 171.267077,5.89752766 171.778861,5.96908766 C174.85263,2.31975205 179.463941,0 184.618871,0 Z" id="形状结合备份" fill="url(#linearGradient-3)"></path>
                <g id="编组-6" transform="translate(57.515382, 71.394997)">
                    <polygon id="Fill-3" fill="#C2C6CC" points="10.4799995 34.0599985 13.0999994 34.0599985 13.0999994 13.0999994 10.4799995 13.0999994"></polygon>
                    <path d="M19.6499991,18.363055 C19.6499991,24.5917615 16.1308991,26.1999989 11.789898,26.1999989 C7.44889695,26.1999989 3.92999983,24.5917615 3.92999983,18.363055 C3.92999983,12.1343485 7.44889695,0 11.789898,0 C16.1308991,0 19.6499991,12.1343485 19.6499991,18.363055" id="Fill-1" fill="url(#linearGradient-4)"></path>
                    <polygon id="路径-20" fill="#C2C6CC" filter="url(#filter-5)" points="14.2791425 33.4049985 1.48325796e-13 38.1336143 11.6591426 33.4049985"></polygon>
                </g>
                <g id="编组-5" transform="translate(39.175383, 96.939996)">
                    <polygon id="Fill-3" fill="#C2C6CB" points="7.12639976 23.1607992 8.9079997 23.1607992 8.9079997 8.9079997 7.12639976 8.9079997"></polygon>
                    <path d="M13.3619996,12.4868775 C13.3619996,16.722398 10.9690115,17.8159994 8.01713075,17.8159994 C5.06524998,17.8159994 2.67239991,16.722398 2.67239991,12.4868775 C2.67239991,8.25135708 5.06524998,5.5067062e-14 8.01713075,5.5067062e-14 C10.9690115,5.5067062e-14 13.3619996,8.25135708 13.3619996,12.4868775" id="Fill-1" fill="url(#linearGradient-6)"></path>
                    <polygon id="路径-20" fill="#C2C6CB" filter="url(#filter-7)" points="9.70981702 22.7153992 -3.66817687e-13 25.930858 7.92821708 22.7153992"></polygon>
                </g>
                <g id="编组-3" transform="translate(186.930385, 97.500000) scale(-1, 1) translate(-186.930385, -97.500000) translate(179.930385, 82.500000)">
                    <polygon id="Fill-3" fill="#C2C6CB" points="7.55859088 26.4657955 9.34019082 26.4657955 9.34019082 12.212996 7.55859088 12.212996"></polygon>
                    <path d="M13.6895996,12.4868775 C13.6895996,16.722398 11.2966116,17.8159994 8.34473084,17.8159994 C5.39285007,17.8159994 3,16.722398 3,12.4868775 C3,8.25135708 5.39285007,5.86197757e-14 8.34473084,5.86197757e-14 C11.2966116,5.86197757e-14 13.6895996,8.25135708 13.6895996,12.4868775" id="Fill-1" fill="url(#linearGradient-6)"></path>
                    <polygon id="路径-20" fill="#C2C6CB" filter="url(#filter-8)" points="9.70981702 26.5 9.05941988e-14 29.7154587 7.92821708 26.5"></polygon>
                </g>
            </g>
            <path d="M93.4303851,41.5 C93.7065275,41.5 93.9303851,41.7238576 93.9303851,42 L93.9303851,43 L94.9303851,43 C95.2065275,43 95.4303851,43.2238576 95.4303851,43.5 C95.4303851,43.7761424 95.2065275,44 94.9303851,44 L93.9303851,44 L93.9303851,45 C93.9303851,45.2761424 93.7065275,45.5 93.4303851,45.5 C93.1542427,45.5 92.9303851,45.2761424 92.9303851,45 L92.9303851,44 L91.9303851,44 C91.6542427,44 91.4303851,43.7761424 91.4303851,43.5 C91.4303851,43.2238576 91.6542427,43 91.9303851,43 L92.9303851,43 L92.9303851,42 C92.9303851,41.7238576 93.1542427,41.5 93.4303851,41.5 Z" id="形状结合" fill="url(#linearGradient-9)"></path>
            <path d="M103.430385,26.5 C102.049673,26.5 100.930385,27.6192881 100.930385,29 C100.930385,30.3807119 102.049673,31.5 103.430385,31.5 C104.811097,31.5 105.930385,30.3807119 105.930385,29 C105.930385,27.6192881 104.811097,26.5 103.430385,26.5 Z M103.430385,27.5 C104.258812,27.5 104.930385,28.1715729 104.930385,29 C104.930385,29.8284271 104.258812,30.5 103.430385,30.5 C102.601958,30.5 101.930385,29.8284271 101.930385,29 C101.930385,28.1715729 102.601958,27.5 103.430385,27.5 Z" id="椭圆形" fill="url(#linearGradient-10)"></path>
            <path d="M160.430385,40.5 C160.706527,40.5 160.930385,40.7238576 160.930385,41 L160.930385,42 L161.930385,42 C162.206527,42 162.430385,42.2238576 162.430385,42.5 C162.430385,42.7761424 162.206527,43 161.930385,43 L160.930385,43 L160.930385,44 C160.930385,44.2761424 160.706527,44.5 160.430385,44.5 C160.154243,44.5 159.930385,44.2761424 159.930385,44 L159.930385,43 L158.930385,43 C158.654243,43 158.430385,42.7761424 158.430385,42.5 C158.430385,42.2238576 158.654243,42 158.930385,42 L159.930385,42 L159.930385,41 C159.930385,40.7238576 160.154243,40.5 160.430385,40.5 Z" id="形状结合备份-2" fill="url(#linearGradient-10)" transform="translate(160.430385, 42.500000) rotate(-45.000000) translate(-160.430385, -42.500000) "></path>
            <path d="M88.4303851,39 L88.2298053,39.7825298 C87.092182,44.2207843 84.5274573,48.1621554 80.9303851,51 L80.9303851,51 L80.9303851,51" id="路径-28" stroke="#EFEFEF" stroke-width="0.5" stroke-linecap="round"></path>
            <path d="M88.4303851,50 L88.0315049,50.8575847 C86.1186472,54.9701915 82.9257468,58.3529919 78.9303851,60.5 L78.9303851,60.5 L78.9303851,60.5" id="路径-28备份" stroke="#EFEFEF" stroke-width="0.5" stroke-linecap="round"></path>
            <path d="M74.4337279,57.1010418 C74.3813439,57.0325396 74.3007531,56.9962737 74.2161327,57.0003032 C74.1315123,57.0043328 74.054951,57.0526873 74.0146556,57.125219 C73.2812791,58.4106427 72.3303073,58.8538922 71.4921627,59.2447577 C70.9441451,59.4986189 70.4283638,59.7403913 70.0415279,60.1796113 C69.6103669,60.6671858 69.4088899,61.3280306 69.4088899,62.2548251 C69.4088899,62.6094248 69.4370967,63.0043198 69.4975398,63.4435398 C68.3934455,63.7094895 67.4303851,63.556367 67.4303851,63.556367 L67.4303851,64.5637523 C68.6634247,64.5637523 69.6909578,64.2736253 70.4364229,63.9593211 C70.9239974,63.7739622 71.3591879,63.5241306 71.7379648,63.2420627 C71.7822897,63.2098264 71.806467,63.1896787 71.806467,63.1896787 C73.6399083,61.7753097 74.2322508,59.5227961 74.2322508,59.5227961 C74.2322508,61.9284323 72.4794004,64.0197642 70.2389754,64.7652294 C70.928027,64.9828246 71.568724,65.0835631 72.1449484,65.0553563 C72.7937046,65.02312 73.369929,64.8377611 73.8575035,64.5033092 C74.8930956,63.7860508 75.4854687,62.3998886 75.4854687,60.6953926 C75.4894677,59.3172895 75.0945727,57.9714227 74.4337279,57.1010418 Z" id="路径" fill="url(#linearGradient-11)" transform="translate(71.457927, 61.030000) scale(-1, 1) rotate(-264.000000) translate(-71.457927, -61.030000) "></path>
            <path d="M157.394519,64 L92.5945179,64 L101.361118,35.4136 C101.618718,34.5734 102.394518,34 103.273118,34 L146.715919,34 C147.594518,34 148.370319,34.5734 148.627919,35.4136 L157.394519,64 Z" id="Fill-3" fill="url(#linearGradient-12)"></path>
            <path d="M95.2997979,62 L102.839598,37.4136001 C103.097198,36.5734 103.872998,36 104.751798,36 L145.237199,36 C146.115999,36 146.891799,36.5734 147.149399,37.4136001 L154.689199,62 L151.194599,73 L98.394598,73 L95.2997979,62 Z" id="Fill-5" fill="url(#linearGradient-13)"></path>
            <path d="M142.976867,44.7627124 C152.611032,43.0578506 158.566437,41.7609257 160.07202,30.8551946 C160.161124,30.2097648 159.79998,29.295817 159.172675,29.1197257 C156.184872,28.2810166 152.545482,33.6790911 158.560912,33.3583386 C165.279138,33.0001119 160.732226,28.7555247 169.486617,28.8454541" id="路径-27" stroke="url(#linearGradient-14)" stroke-width="0.5" stroke-linecap="round" stroke-dasharray="3"></path>
            <circle id="椭圆形备份" fill="url(#linearGradient-10)" cx="145.430385" cy="27" r="1.5"></circle>
            <circle id="椭圆形" fill="#C2C6CC" cx="129.430385" cy="57.5" r="1.5"></circle>
            <polygon id="路径-32" fill="url(#linearGradient-15)" points="103.430385 64.0000004 89.9303851 15.5 159.930385 15.5 146.830953 64"></polygon>
            <circle id="椭圆形" fill="url(#linearGradient-16)" cx="109.430385" cy="45.5" r="4.5"></circle>
            <path d="M139.715999,53.6712803 L138.272999,62.3286804 C138.112199,63.2930804 137.277999,64.0000803 136.300199,64.0000803 L113.688798,64.0000803 C112.711198,64.0000803 111.876798,63.2930804 111.715998,62.3286804 L110.272998,53.6712803 C110.112198,52.7068803 109.277998,52.0000803 108.300198,52.0000803 L93.9303979,52.0000803 C92.7741979,52.0000803 91.8587979,52.9774803 91.9347979,54.1312803 L93.6715979,80.5312807 C93.7407979,81.5826807 94.6135979,82.4000807 95.6671979,82.4000807 L154.321799,82.4000807 C155.375399,82.4000807 156.248399,81.5826807 156.317399,80.5312807 L158.054199,54.1312803 C158.130199,52.9774803 157.214799,52.0000803 156.058599,52.0000803 L141.688799,52.0000803 C140.711199,52.0000803 139.876799,52.7068803 139.715999,53.6712803" id="Fill-1" fill="url(#linearGradient-17)"></path>
            <path d="M148.93167,60.5199999 C149.029328,59.290871 149.320524,58.1294894 149.767085,56.9654683 C150.215421,55.8102455 150.81557,54.6708597 151.597716,53.6212171 C152.375424,52.5768535 153.293403,51.5641639 154.365858,50.7248017 C155.420558,49.8414478 156.609314,49.1402197 157.854002,48.4953009 L157.9996,48.4196352 C159.815139,47.4782122 162.056819,48.1741613 163.006759,49.973423 C163.956699,51.7726847 163.255341,53.9933871 161.439802,54.9348101 C160.909789,55.2101983 160.324733,55.344813 159.765423,55.3536114 C158.869638,55.3650492 157.932128,55.4020023 157.031017,55.6131625 C156.104159,55.7847303 155.217253,56.1261061 154.331234,56.5607444 C153.444328,56.9980221 152.608914,57.589271 151.832094,58.2931386 C151.059713,58.9899676 150.337936,59.8381281 149.791943,60.7381989 L149.763533,60.7848301 C149.635691,60.9951106 149.360475,61.0628578 149.148292,60.9361616 C148.997367,60.8464185 148.919241,60.6827693 148.93167,60.5199999" id="Fill-1" fill="url(#linearGradient-18)" transform="translate(156.180385, 54.500000) rotate(67.000000) translate(-156.180385, -54.500000) "></path>
            <path d="M94.8963537,28.6085329 C95.3313057,28.6456607 95.5991031,28.7063329 95.9299117,28.7670052 C96.2414669,28.8303941 96.5503966,28.8955941 96.8523251,28.9725663 C97.4596827,29.1201719 98.0521626,29.293133 98.6376413,29.4878275 C99.8077235,29.8744998 100.945425,30.3535388 102.031492,30.9249444 C103.116685,31.5081223 104.141491,32.2108335 105.063904,33.0095337 C105.981942,33.8254394 106.755579,34.7871395 107.362937,35.7977397 C107.493335,36.013262 107.428573,36.2967009 107.221162,36.4307232 C107.068885,36.5285232 106.882477,36.5194676 106.742452,36.4243843 L106.713572,36.404462 C105.826165,35.7995508 104.905501,35.3503952 103.940205,35.0624285 C102.967033,34.7889506 101.987735,34.6341006 100.999685,34.5842951 C100.006384,34.5462617 99.0183337,34.5924451 98.043411,34.7165062 C97.5568249,34.7771784 97.071989,34.8577729 96.6002804,34.9591951 C96.3622383,35.0053785 96.1320725,35.0642396 95.9027819,35.1212896 C95.6936199,35.1810563 95.4214467,35.2471618 95.3164281,35.3123619 C93.6396311,36.3628065 91.4587448,35.8077008 90.443565,34.0726561 C89.4292603,32.3385169 89.9648552,30.0809665 91.6416522,29.0314274 C92.30677,28.6148718 93.0506517,28.4509662 93.7700292,28.512544 L94.8963537,28.6085329 Z" id="Fill-3" fill="url(#linearGradient-19)" transform="translate(98.680385, 32.500000) rotate(18.000000) translate(-98.680385, -32.500000) "></path>
            <g id="编组-4" transform="translate(171.430385, 24.000000) scale(-1, 1) translate(-171.430385, -24.000000) translate(164.430385, 19.000000)">
                <polygon id="路径-18" fill="url(#linearGradient-20)" points="8.8817842e-14 1.77635684e-14 3.07537658 8.71376151 6.68169816 7.04639519 9.86921608 9.70601299 9.86921608 5.60123142 13.3633963 4.25125586"></polygon>
                <polygon id="路径-19" fill="#C3C6CB" points="1.30562228e-13 1.24344979e-14 9.86921608 5.60123142 9.86921608 9.70601299 7.51395763 6.60716858"></polygon>
            </g>
            <path d="M130.359556,41.9917123 C130.688704,41.9917123 130.9553,42.2607193 130.9553,42.5921744 L130.9553,44.3935608 C130.9553,44.7250158 130.688704,44.9940229 130.359556,44.9940229 L128.090385,44.994 L128.090385,48.497 L133.845133,48.4976893 C134.174281,48.4976893 134.440877,48.7666963 134.440877,49.0981514 L134.440877,50.8995377 C134.440877,51.2309928 134.174281,51.4999998 133.845133,51.4999998 L121.124516,51.4999998 C120.795367,51.4999998 120.528772,51.2309928 120.528772,50.8995377 L120.528772,49.0981514 C120.528772,48.7666963 120.795367,48.4976893 121.124516,48.4976893 L125.111385,48.497 L125.111385,44.994 L122.840675,44.9940229 C122.511526,44.9940229 122.244931,44.7250158 122.244931,44.3935608 L122.244931,42.5921744 C122.244931,42.2607193 122.511526,41.9917123 122.840675,41.9917123 L130.359556,41.9917123 Z M120.412006,35.9328094 L122.180471,36.1943107 C122.506045,36.2423476 122.731236,36.5476826 122.683279,36.8758352 L122.21562,40.0862058 C122.167663,40.4143584 121.865323,40.6413331 121.539749,40.5932961 L119.771284,40.3314946 C119.446008,40.2831574 119.220817,39.9784229 119.268476,39.6502704 L119.736135,36.4395994 C119.783795,36.1114469 120.08673,35.8844722 120.412006,35.9328094 Z M131.248018,35.7128902 C131.573592,35.6648532 131.87623,35.8918279 131.924187,36.2199804 L131.924187,36.2199804 L132.391846,39.4303511 C132.439506,39.7585036 132.214314,40.0632382 131.889038,40.1118756 L131.889038,40.1118756 L130.120573,40.3733769 C129.794999,40.4217141 129.492361,40.1947394 129.444702,39.8662866 L129.444702,39.8662866 L128.977043,36.6559159 C128.929086,36.3277634 129.154277,36.0227286 129.479851,35.9743914 L129.479851,35.9743914 Z M115.444576,31.8129188 L117.212743,32.07442 C117.538317,32.1227572 117.763508,32.427792 117.715551,32.7559445 L116.883893,38.4651383 C116.836233,38.7932908 116.533596,39.0202655 116.208022,38.9719283 L114.439557,38.7104271 C114.11428,38.6620899 113.889089,38.3570551 113.936749,38.0289026 L114.768407,32.3197088 C114.816364,31.9918565 115.119002,31.7648818 115.444576,31.8129188 Z M134.046882,31.0922141 L134.119385,31.098 L135.334641,31.0983689 C135.663492,31.0983689 135.930385,31.3673759 135.930385,31.698831 L135.930385,36.4902184 C135.930385,36.8216735 135.663492,37.0906805 135.334641,37.0906805 L133.54741,37.0906805 C133.218262,37.0906805 132.951666,36.8216735 132.951666,36.4902184 L132.951385,34.094 L119.153289,34.0945247 C118.824439,34.0945247 118.557545,33.8255177 118.557545,33.4940626 L118.557545,31.6926762 C118.557545,31.3612212 118.824439,31.0922141 119.153289,31.0922141 L134.046882,31.0922141 Z M126.81336,26.5 C127.14221,26.5 127.409104,26.7687068 127.409104,27.1004621 L127.409104,29.610694 C127.409104,29.9421491 127.14221,30.2111561 126.81336,30.2111561 L125.026129,30.2111561 C124.697278,30.2111561 124.430385,29.9421491 124.430385,29.610694 L124.430385,27.1004621 C124.430385,26.7687068 124.697278,26.5 125.026129,26.5 L126.81336,26.5 Z" id="形状结合" fill="url(#linearGradient-21)"></path>
            <ellipse id="椭圆形" fill="#B5BDC7" style="mix-blend-mode: multiply;" opacity="0.300000012" filter="url(#filter-22)" cx="125.180385" cy="92" rx="22" ry="2"></ellipse>
        </g>
    </g>
</svg>